HIERARCHY
ROOT hip
{
  OFFSET 1.46175 84.2494 4.6417
  CHANNELS 6 Xposition Yposition Zposition Zrotation Xrotation Yrotation
  JOINT abdomen
  {
    OFFSET 0 20.6881 -0.73152
    CHANNELS 3 Zrotation Xrotation Yrotation
    JOINT chest
    {
      OFFSET 0 11.7043 -0.48768
      CHANNELS 3 Zrotation Xrotation Yrotation
      JOINT neck
      {
        OFFSET 0 22.1894 -2.19456
        CHANNELS 3 Zrotation Xrotation Yrotation
        JOINT head
        {
          OFFSET -0.24384 7.07133 1.2192
          CHANNELS 3 Zrotation Xrotation Yrotation
          JOINT leftEye
          {
            OFFSET 4.14528 8.04674 8.04672
            CHANNELS 3 Zrotation Xrotation Yrotation
            End Site
            {
              OFFSET 1 0 0
            }
          }
          JOINT rightEye
          {
            OFFSET -3.6576 8.04674 8.04672
            CHANNELS 3 Zrotation Xrotation Yrotation
            End Site
            {
              OFFSET 1 0 0
            }
          }
        }
      }
      JOINT rCollar
      {
        OFFSET -2.68224 19.2634 -4.8768
        CHANNELS 3 Zrotation Xrotation Yrotation
        JOINT rShldr
        {
          OFFSET -8.77824 -1.95073 1.46304
          CHANNELS 3 Zrotation Xrotation Yrotation
          JOINT rForeArm
          {
            OFFSET -28.1742 -1.7115 0.48768
            CHANNELS 3 Zrotation Xrotation Yrotation
            JOINT rHand
            {
              OFFSET -22.5879 0.773209 7.07136
              CHANNELS 3 Zrotation Xrotation Yrotation
              JOINT rThumb1
              {
                OFFSET -1.2192 -0.487915 3.41376
                CHANNELS 3 Zrotation Xrotation Yrotation
                JOINT rThumb2
                {
                  OFFSET -3.37035 -0.52449 3.41376
                  CHANNELS 3 Zrotation Xrotation Yrotation
                  End Site
                  {
                    OFFSET -1.78271 -1.18214 1.43049
                  }
                }
              }
              JOINT rIndex1
              {
                OFFSET -7.75947 0.938293 5.60832
                CHANNELS 3 Zrotation Xrotation Yrotation
                JOINT rIndex2
                {
                  OFFSET -2.54057 -0.884171 1.56538
                  CHANNELS 3 Zrotation Xrotation Yrotation
                  End Site
                  {
                    OFFSET -1.62519 -0.234802 1.16502
                  }
                }
              }
              JOINT rMid1
              {
                OFFSET -8.24714 1.18213 3.41376
                CHANNELS 3 Zrotation Xrotation Yrotation
                JOINT rMid2
                {
                  OFFSET -3.10165 -0.590103 1.0647
                  CHANNELS 3 Zrotation Xrotation Yrotation
                  End Site
                  {
                    OFFSET -2.48547 -0.328903 0.83742
                  }
                }
              }
              JOINT rRing1
              {
                OFFSET -8.82822 0.546677 1.51678
                CHANNELS 3 Zrotation Xrotation Yrotation
                JOINT rRing2
                {
                  OFFSET -2.60934 -0.819778 -0.0198488
                  CHANNELS 3 Zrotation Xrotation Yrotation
                  End Site
                  {
                    OFFSET -2.33842 -0.294052 0.168128
                  }
                }
              }
              JOINT rPinky1
              {
                OFFSET -8.27202 -0.0477905 -0.4584
                CHANNELS 3 Zrotation Xrotation Yrotation
                JOINT rPinky2
                {
                  OFFSET -1.82734 -0.647385 -0.700984
                  CHANNELS 3 Zrotation Xrotation Yrotation
                  End Site
                  {
                    OFFSET -1.69225 -0.51767 -0.607171
                  }
                }
              }
            }
          }
        }
      }
      JOINT lCollar
      {
        OFFSET 2.68224 19.2634 -4.8768
        CHANNELS 3 Zrotation Xrotation Yrotation
        JOINT lShldr
        {
          OFFSET 8.77824 -1.95073 1.46304
          CHANNELS 3 Zrotation Xrotation Yrotation
          JOINT lForeArm
          {
            OFFSET 28.1742 -1.7115 0.48768
            CHANNELS 3 Zrotation Xrotation Yrotation
            JOINT lHand
            {
              OFFSET 22.5879 0.773209 7.07136
              CHANNELS 3 Zrotation Xrotation Yrotation
              JOINT lThumb1
              {
                OFFSET 1.2192 -0.487915 3.41376
                CHANNELS 3 Zrotation Xrotation Yrotation
                JOINT lThumb2
                {
                  OFFSET 3.37035 -0.52449 3.41376
                  CHANNELS 3 Zrotation Xrotation Yrotation
                  End Site
                  {
                    OFFSET 1.78271 -1.18214 1.43049
                  }
                }
              }
              JOINT lIndex1
              {
                OFFSET 7.75947 0.938293 5.60832
                CHANNELS 3 Zrotation Xrotation Yrotation
                JOINT lIndex2
                {
                  OFFSET 2.54057 -0.884171 1.56538
                  CHANNELS 3 Zrotation Xrotation Yrotation
                  End Site
                  {
                    OFFSET 1.62519 -0.234802 1.16502
                  }
                }
              }
              JOINT lMid1
              {
                OFFSET 8.24714 1.18213 3.41376
                CHANNELS 3 Zrotation Xrotation Yrotation
                JOINT lMid2
                {
                  OFFSET 3.10165 -0.590103 1.0647
                  CHANNELS 3 Zrotation Xrotation Yrotation
                  End Site
                  {
                    OFFSET 2.48547 -0.328903 0.83742
                  }
                }
              }
              JOINT lRing1
              {
                OFFSET 8.82822 0.546677 1.51678
                CHANNELS 3 Zrotation Xrotation Yrotation
                JOINT lRing2
                {
                  OFFSET 2.60934 -0.819778 -0.0198488
                  CHANNELS 3 Zrotation Xrotation Yrotation
                  End Site
                  {
                    OFFSET 2.33842 -0.294052 0.168128
                  }
                }
              }
              JOINT lPinky1
              {
                OFFSET 8.27202 -0.0477905 -0.4584
                CHANNELS 3 Zrotation Xrotation Yrotation
                JOINT lPinky2
                {
                  OFFSET 1.82734 -0.647385 -0.700984
                  CHANNELS 3 Zrotation Xrotation Yrotation
                  End Site
                  {
                    OFFSET 1.69225 -0.51767 -0.607171
                  }
                }
              }
            }
          }
        }
      }
    }
  }
  JOINT rButtock
  {
    OFFSET -8.77824 4.35084 1.2192
    CHANNELS 3 Zrotation Xrotation Yrotation
    JOINT rThigh
    {
      OFFSET 0 -1.70687 -2.19456
      CHANNELS 3 Zrotation Xrotation Yrotation
      JOINT rShin
      {
        OFFSET 0 -36.8199 0.73152
        CHANNELS 3 Zrotation Xrotation Yrotation
        JOINT rFoot
        {
          OFFSET 0.73152 -45.1104 -5.12064
          CHANNELS 3 Zrotation Xrotation Yrotation
          End Site
          {
            OFFSET -1.1221 -3.69964 12.103
          }
        }
      }
    }
  }
  JOINT lButtock
  {
    OFFSET 8.77824 4.35084 1.2192
    CHANNELS 3 Zrotation Xrotation Yrotation
    JOINT lThigh
    {
      OFFSET 0 -1.70687 -2.19456
      CHANNELS 3 Zrotation Xrotation Yrotation
      JOINT lShin
      {
        OFFSET 0 -36.8199 0.73152
        CHANNELS 3 Zrotation Xrotation Yrotation
        JOINT lFoot
        {
          OFFSET -0.73152 -45.1104 -5.12064
          CHANNELS 3 Zrotation Xrotation Yrotation
          End Site
          {
            OFFSET 1.1221 -3.69964 12.103
          }
        }
      }
    }
  }
}
MOTION
Frames:	5
Frame Time:	0.00833333
3.60947 75.5213 -0.96936 4.82999 6.41304 -2.74294 2.34438 5.73522 7.5204 -3.64402 -4.96625 2.00849 -5.04952 18.4051 1.22589 7.75126 -20.6353 3.60158 -0 0 0 -0 0 0 1.02617e-013 2.14679e-014 -6.95311e-014 167.119 80.3238 -118.131 -27.9838 -30.5172 68.0751 -9.82605e-005 -0.283248 -0.0398082 -1.49695e-010 -8.53002e-010 2.50283e-010 -2.58624e-010 -1.47454e-009 4.31522e-010 -1.49688e-010 -8.52994e-010 2.5027e-010 7.73091 5.47488 0.417314 -1.49695e-010 -8.53001e-010 2.50277e-010 2.90554 0.965183 0.102902 -1.4969e-010 -8.53e-010 2.50281e-010 10.2786 0.731801 0.0259123 -1.49694e-010 -8.53002e-010 2.5029e-010 2.22167 -0.733487 -0.20892 1.02545e-013 2.1469e-014 -6.96927e-014 -29.4976 -22.0604 10.948 26.6482 -44.8965 -93.2489 0.297337 15.3336 -2.20851 -1.40619e-010 -6.42598e-010 5.15631e-010 -2.39288e-010 -1.1095e-009 8.93595e-010 -1.40617e-010 -6.42589e-010 5.15637e-010 -7.73091 5.47488 -0.417314 -1.40615e-010 -6.42595e-010 5.15637e-010 -2.90554 0.965183 -0.102902 -1.40625e-010 -6.42596e-010 5.15637e-010 -10.2786 0.731801 -0.0259123 -1.40607e-010 -6.42592e-010 5.15624e-010 -2.22167 -0.733487 0.20892 -2.03217e-016 0 -3.88251e-019 -6.44419 -33.8045 4.25343 -0.6543 53.0368 1.34737 -7.86034 -22.2406 -16.2922 2.03217e-016 0 3.88251e-019 -5.62993 -31.3594 -0.428861 0.57665 50.5923 -1.21588 5.55449 -24.04 10.9104 
3.60793 75.5173 -0.970187 4.84404 6.40296 -2.7365 2.31153 5.75571 7.52368 -3.65836 -4.98052 2.00686 -5.09913 18.421 1.22054 7.817 -20.6412 3.60134 -0 0 0 -0 0 0 9.94676e-014 -8.7012e-014 -1.3054e-013 167.147 80.3075 -118.148 -27.9817 -30.5048 68.055 -8.77349e-005 -0.267904 -0.0376517 -8.79811e-010 -7.36094e-010 -1.49483e-010 -1.51808e-009 -1.27569e-009 -2.59979e-010 -8.79808e-010 -7.36089e-010 -1.49492e-010 7.73091 5.47488 0.417314 -8.79813e-010 -7.36092e-010 -1.49492e-010 2.90554 0.965183 0.102902 -8.79809e-010 -7.36092e-010 -1.49488e-010 10.2786 0.731801 0.0259123 -8.79811e-010 -7.36092e-010 -1.49481e-010 2.22167 -0.733487 -0.20892 9.94234e-014 -8.69996e-014 -1.30688e-013 -29.4975 -22.0942 10.9254 26.655 -44.8803 -93.216 0.296964 15.3242 -2.2071 -8.30534e-011 -1.38947e-009 1.31923e-009 -1.28087e-010 -2.3868e-009 2.28015e-009 -8.30467e-011 -1.38945e-009 1.31923e-009 -7.73091 5.47488 -0.417314 -8.30496e-011 -1.38946e-009 1.31924e-009 -2.90554 0.965183 -0.102902 -8.30579e-011 -1.38946e-009 1.31923e-009 -10.2786 0.731801 -0.0259123 -8.30429e-011 -1.38946e-009 1.31922e-009 -2.22167 -0.733487 0.20892 -2.03217e-016 0 -3.88251e-019 -6.45902 -33.7877 4.25139 -0.654576 53.0368 1.348 -7.86867 -22.2463 -16.3064 2.03217e-016 0 3.88251e-019 -5.64357 -31.3397 -0.43009 0.57549 50.5791 -1.20953 5.54548 -24.0317 10.8941 
3.60666 75.5124 -0.97523 4.85867 6.39615 -2.72511 2.27438 5.77064 7.5193 -3.66776 -4.98881 2.00368 -5.12597 18.4285 1.21668 7.84598 -20.6519 3.59865 -0 0 0 -0 0 0 1.11536e-013 -1.35978e-013 -1.6688e-013 167.188 80.3023 -118.174 -27.9801 -30.4951 68.0394 -8.06832e-005 -0.256479 -0.0360461 -1.2895e-009 -8.38949e-010 -2.91606e-010 -2.22498e-009 -1.45543e-009 -5.05756e-010 -1.2895e-009 -8.38946e-010 -2.91612e-010 7.73091 5.47488 0.417314 -1.2895e-009 -8.38946e-010 -2.91616e-010 2.90554 0.965183 0.102902 -1.2895e-009 -8.38946e-010 -2.91612e-010 10.2786 0.731801 0.0259123 -1.2895e-009 -8.38946e-010 -2.91606e-010 2.22167 -0.733487 -0.20892 1.11508e-013 -1.35959e-013 -1.67029e-013 -29.4974 -22.1209 10.9066 26.6608 -44.8667 -93.1882 0.297116 15.3281 -2.20768 -8.15017e-011 -1.92015e-009 1.85382e-009 -1.1849e-010 -3.2968e-009 3.20353e-009 -8.1493e-011 -1.92013e-009 1.85381e-009 -7.73091 5.47488 -0.417314 -8.14978e-011 -1.92014e-009 1.85382e-009 -2.90554 0.965183 -0.102902 -8.15059e-011 -1.92014e-009 1.85382e-009 -10.2786 0.731801 -0.0259123 -8.1493e-011 -1.92014e-009 1.85381e-009 -2.22167 -0.733487 0.20892 -2.03217e-016 0 -3.88251e-019 -6.47827 -33.78 4.24408 -0.655375 53.0425 1.34923 -7.8758 -22.2526 -16.3177 2.03217e-016 0 3.88251e-019 -5.66186 -31.3306 -0.43707 0.574566 50.5729 -1.20514 5.53693 -24.0216 10.8822 
3.60636 75.5073 -0.982249 4.87498 6.39313 -2.70531 2.23067 5.77884 7.49972 -3.66727 -4.98859 1.99718 -5.11741 18.424 1.217 7.81301 -20.674 3.59497 -0 0 0 -0 0 0 1.57755e-013 -9.02642e-014 -1.69102e-013 167.273 80.3169 -118.239 -27.9791 -30.4895 68.0306 -7.74524e-005 -0.250666 -0.0352291 -1.23612e-009 -1.40588e-009 2.15341e-011 -2.13354e-009 -2.4356e-009 3.61092e-011 -1.23612e-009 -1.40588e-009 2.15297e-011 7.73091 5.47488 0.417314 -1.23612e-009 -1.40588e-009 2.15268e-011 2.90554 0.965183 0.102902 -1.23612e-009 -1.40588e-009 2.15293e-011 10.2786 0.731801 0.0259123 -1.23613e-009 -1.40588e-009 2.15367e-011 2.22167 -0.733487 -0.20892 1.57726e-013 -9.02448e-014 -1.69276e-013 -29.5027 -22.1401 10.8945 26.6651 -44.8566 -93.1675 0.298222 15.3559 -2.21188 -1.94165e-010 -2.23529e-009 2.06607e-009 -3.12975e-010 -3.84392e-009 3.5731e-009 -1.94158e-010 -2.23528e-009 2.06607e-009 -7.73091 5.47488 -0.417314 -1.94162e-010 -2.23528e-009 2.06607e-009 -2.90554 0.965183 -0.102902 -1.94171e-010 -2.23529e-009 2.06607e-009 -10.2786 0.731801 -0.0259123 -1.94159e-010 -2.23529e-009 2.06606e-009 -2.22167 -0.733487 0.20892 -2.03217e-016 0 -3.88251e-019 -6.50566 -33.7841 4.22826 -0.657013 53.0557 1.35146 -7.8814 -22.2598 -16.3253 2.03217e-016 0 3.88251e-019 -5.68896 -31.3357 -0.454503 0.573795 50.5764 -1.20336 5.52604 -24.0064 10.8721 
3.60816 75.5026 -0.988879 4.89442 6.39159 -2.67931 2.18 5.78395 7.46899 -3.6599 -4.98297 1.98827 -5.08694 18.413 1.22065 7.74172 -20.7065 3.59226 -0 0 0 -0 0 0 2.24145e-013 1.34598e-014 -1.49983e-013 167.392 80.3447 -118.335 -27.9786 -30.4863 68.0256 -7.6572e-005 -0.249263 -0.0350318 -9.09465e-010 -2.27354e-009 6.24717e-010 -1.57101e-009 -3.93458e-009 1.07983e-009 -9.0946e-010 -2.27354e-009 6.24714e-010 7.73091 5.47488 0.417314 -9.09465e-010 -2.27354e-009 6.24714e-010 2.90554 0.965183 0.102902 -9.09464e-010 -2.27354e-009 6.24715e-010 10.2786 0.731801 0.0259123 -9.09469e-010 -2.27354e-009 6.24725e-010 2.22167 -0.733487 -0.20892 2.24105e-013 1.34754e-014 -1.50197e-013 -29.5122 -22.156 10.8866 26.6687 -44.8481 -93.1502 0.300078 15.4022 -2.21889 -3.77515e-010 -2.43182e-009 2.09373e-009 -6.33587e-010 -4.19184e-009 3.62568e-009 -3.77512e-010 -2.43181e-009 2.09374e-009 -7.73091 5.47488 -0.417314 -3.77512e-010 -2.43181e-009 2.09373e-009 -2.90554 0.965183 -0.102902 -3.77524e-010 -2.43182e-009 2.09374e-009 -10.2786 0.731801 -0.0259123 -3.77513e-010 -2.43181e-009 2.09372e-009 -2.22167 -0.733487 0.20892 -2.03217e-016 0 -3.88251e-019 -6.54097 -33.795 4.20636 -0.659367 53.0746 1.35456 -7.88656 -22.2686 -16.331 2.03217e-016 0 3.88251e-019 -5.72428 -31.3484 -0.479068 0.573057 50.5858 -1.20281 5.51237 -23.9866 10.8611 
